<svg version="1.1" id="Layer_1" xmlns="http://www.w3.org/2000/svg" xmlns:xlink="http://www.w3.org/1999/xlink" x="0px" y="0px"
	 width="100%" viewBox="0 0 1024 544" enable-background="new 0 0 1024 544" xml:space="preserve">
<path fill="#000000" opacity="1.000000" stroke="none" 
	d="
M1.000000,101.468658 
	C2.020598,101.821297 1.979003,103.555389 4.047315,104.082191 
	C7.920116,100.516907 11.941553,96.665138 16.915112,93.917564 
	C19.477621,92.501953 19.176912,88.894333 19.868662,86.195648 
	C23.033113,73.850342 29.794094,69.951843 41.876396,73.617729 
	C46.678715,75.074799 48.623325,73.603546 47.907349,68.805840 
	C47.579990,66.612251 47.890606,64.518227 47.983578,62.367588 
	C48.135685,58.848961 49.137104,56.013832 52.990749,55.401150 
	C56.906288,54.778629 60.435726,55.752880 62.258926,59.615234 
	C65.486443,66.452583 67.846367,73.565598 66.977913,81.290924 
	C65.589149,93.644608 60.039074,104.051971 51.584202,112.962425 
	C44.354549,120.581619 36.787083,127.227394 25.997740,130.244446 
	C19.307688,132.115204 13.453074,136.846222 5.838834,136.234222 
	C3.312797,136.031204 2.382013,138.477112 1.212789,140.719025 
	C1.000000,127.979103 1.000000,114.958214 1.000000,101.468658 
z"/>
<path fill="#000000" opacity="1.000000" stroke="none" 
	d="
M463.807373,320.298279 
	C453.642853,315.879730 444.447449,310.516724 435.852386,304.163910 
	C430.460785,300.178833 430.401367,299.445892 434.597778,294.344879 
	C449.073517,276.748505 467.770233,265.820923 489.581268,259.981567 
	C492.727875,259.139160 495.227234,257.872864 496.296936,254.728409 
	C502.824158,235.540649 503.568085,216.871597 491.180542,199.418213 
	C489.620972,197.220825 487.812683,195.284286 485.630249,193.715591 
	C479.148682,189.056656 477.060303,189.378235 472.394806,195.696991 
	C467.152893,202.796417 457.572113,205.814713 449.206268,203.075775 
	C446.311401,202.128006 446.252075,200.516983 447.533295,198.106339 
	C452.514069,188.735077 459.694061,183.300461 470.842773,184.638123 
	C471.417236,184.707047 472.031311,184.445786 473.841644,184.118973 
	C467.415833,179.773422 461.154175,178.904602 454.884430,178.098419 
	C449.794800,192.015579 431.095856,194.326965 419.720062,185.769470 
	C418.012115,184.484665 418.412415,183.085419 419.471771,181.438583 
	C425.584656,171.935898 435.777161,167.664307 446.751343,170.708084 
	C453.074738,172.461929 459.499695,173.033463 465.940704,173.735825 
	C467.393799,173.894287 468.878906,173.759140 471.113892,173.759140 
	C468.729004,163.041641 466.589050,152.570511 472.707001,141.635056 
	C474.804108,146.038849 473.525818,149.706970 473.928040,153.160263 
	C475.400726,165.804276 481.232574,175.730377 490.850220,183.818359 
	C495.780884,187.964828 500.328583,192.566696 505.601013,197.476471 
	C507.913574,191.975479 506.089630,186.944382 505.447998,182.109741 
	C504.840790,177.534668 503.291229,173.059219 501.900696,168.619965 
	C500.126740,162.956665 497.246246,158.282639 491.911255,154.853409 
	C482.261749,148.650894 479.852386,139.075562 481.246155,128.184875 
	C481.724854,124.444420 483.367615,123.511520 487.039673,124.794518 
	C499.756195,129.237564 506.317505,138.540588 505.076508,150.264420 
	C504.835052,152.545532 502.378937,154.203781 503.648895,156.795670 
	C504.379761,158.287338 512.066528,169.860168 513.727112,171.321838 
	C516.700928,166.504868 519.632080,161.730225 522.594482,156.975067 
	C523.468262,155.572449 522.490417,154.495438 522.160339,153.242447 
	C518.744019,140.275513 527.689575,126.718925 540.936401,124.413124 
	C543.408691,123.982780 544.235474,124.978928 544.874695,126.958488 
	C547.625427,135.477219 544.741028,147.724152 537.398132,152.361053 
	C524.699158,160.380325 522.150757,173.057327 520.278320,186.173416 
	C519.789185,189.600174 518.471680,193.366455 520.561707,196.801544 
	C521.072571,196.801544 521.535095,196.943848 521.704407,196.781067 
	C529.118774,189.653839 537.021667,182.947922 543.752808,175.221649 
	C550.384644,167.609390 553.117126,158.085526 552.858337,147.854706 
	C552.816895,146.219315 552.352539,144.534378 553.140015,142.931824 
	C556.677673,144.970291 558.658447,150.697006 558.000122,157.783249 
	C557.495483,163.215302 556.665283,168.614883 554.276428,174.583694 
	C562.889343,173.253571 570.805908,173.347946 578.463928,170.967422 
	C589.536011,167.525620 599.848389,171.233109 606.564270,180.775269 
	C608.023315,182.848282 608.407776,184.441177 605.942200,186.195908 
	C596.821350,192.687027 584.883118,192.389496 576.162781,185.289841 
	C573.926758,183.469376 572.114136,181.420929 572.232178,178.157990 
	C565.227844,178.000122 559.130920,180.223389 553.159302,183.745590 
	C554.793152,185.562805 556.514587,184.637009 558.037292,184.624176 
	C569.991455,184.523422 574.633911,190.441437 578.939941,198.737625 
	C580.541687,201.823685 578.196655,202.489304 575.989929,203.028046 
	C566.027100,205.460281 557.787170,202.370621 552.487854,193.442764 
	C550.460083,190.026505 548.363953,190.133591 545.514771,191.292664 
	C537.514709,194.547150 533.021362,201.165466 529.903137,208.660507 
	C523.860657,223.184311 524.968811,237.984726 529.377441,252.679276 
	C530.575745,256.673431 533.302002,258.903595 537.785156,260.137543 
	C559.690186,266.166809 578.375427,277.480103 592.860352,295.305115 
	C595.202698,298.187622 595.495361,300.102966 592.236206,302.630188 
	C571.125854,318.999359 547.408020,328.291260 520.687073,330.148010 
	C500.996490,331.516205 482.386322,327.265747 463.807373,320.298279 
M508.646393,281.769409 
	C508.241699,277.728729 508.721741,273.556091 507.122589,269.593994 
	C506.372406,269.593994 505.840118,269.454132 505.423218,269.614410 
	C494.555939,273.792175 489.803162,283.446960 484.862640,292.850616 
	C483.716278,295.032532 485.872131,295.644592 487.456604,296.138977 
	C492.888123,297.833588 498.565674,297.989075 504.150696,298.713684 
	C507.151825,299.103119 508.474243,297.417908 508.553833,294.669220 
	C508.669128,290.685699 508.627441,286.697571 508.646393,281.769409 
M540.682251,290.720734 
	C540.298950,289.981812 539.922974,289.239044 539.531311,288.504578 
	C536.043823,281.964264 531.493774,276.292206 525.656555,271.700287 
	C524.010254,270.405243 522.044800,269.767853 520.025940,270.518494 
	C517.815613,271.340302 518.202454,273.482605 518.190674,275.253113 
	C518.147461,281.747986 518.258362,288.244324 518.171265,294.738251 
	C518.131531,297.703369 519.324707,299.248077 522.313293,298.810974 
	C527.735901,298.017883 533.151184,297.146606 538.533691,296.119720 
	C541.089722,295.632080 542.328125,294.086273 540.682251,290.720734 
M508.504822,317.984375 
	C508.545532,317.155121 508.601318,316.326294 508.624603,315.496552 
	C508.815094,308.718353 508.798401,308.847931 502.036591,308.076294 
	C496.278717,307.419220 490.489197,306.733398 484.847382,305.465332 
	C480.621552,304.515533 479.075378,306.034546 478.570953,310.058350 
	C482.294617,311.633179 484.570465,314.234741 485.152252,318.204498 
	C485.395325,319.863312 486.682648,320.798553 488.208893,321.140533 
	C492.885071,322.188385 497.399323,323.877319 502.317749,323.966553 
	C506.127563,324.035675 508.421387,322.983978 508.504822,317.984375 
M534.508362,318.409851 
	C537.505920,316.273956 540.645325,314.469574 544.389771,313.985657 
	C547.386475,313.598358 548.201782,311.709381 547.695374,308.988373 
	C547.139465,306.001404 545.422546,304.585632 542.384644,305.429779 
	C535.623901,307.308380 528.677612,307.788574 521.736755,308.329803 
	C519.901123,308.472931 518.327026,309.044281 518.314453,311.136841 
	C518.291138,315.024353 517.574219,318.984314 519.053040,323.231537 
	C524.165588,321.833679 528.413025,318.298676 534.508362,318.409851 
M474.519165,290.910309 
	C477.769135,285.268280 481.019135,279.626251 484.269104,273.984222 
	C483.935028,273.610107 483.600952,273.236023 483.266876,272.861908 
	C475.822174,275.132812 468.629028,278.041260 462.697235,283.425690 
	C461.034729,284.934723 461.739563,287.076691 463.760101,287.876617 
	C467.085876,289.193298 470.197510,291.248932 474.519165,290.910309 
M552.992004,290.564880 
	C558.705933,289.899658 560.829102,287.911926 559.641418,284.339569 
	C558.356445,280.474243 548.277893,274.247559 543.599243,274.428375 
	C544.350586,277.280701 549.817566,287.191620 552.992004,290.564880 
M462.655518,299.662476 
	C460.943878,304.714111 465.847992,305.214539 467.772888,308.334442 
	C470.548767,301.316528 470.288239,300.879669 462.655518,299.662476 
z"/>
<path fill="#000000" opacity="1.000000" stroke="none" 
	d="
M555.428345,327.511536 
	C580.725647,318.056244 601.902771,303.343079 617.841980,281.993256 
	C638.867859,253.830078 647.430176,222.151779 643.313232,186.958221 
	C641.517090,171.603409 636.632019,157.507843 629.825317,143.866074 
	C629.254578,142.722122 628.243896,141.659241 628.809509,140.078354 
	C630.801392,139.287247 631.362122,141.040558 632.104065,142.147522 
	C655.584900,177.181030 662.900208,215.278366 651.476257,255.955292 
	C635.671204,312.232391 597.386230,345.921234 541.261902,358.449158 
	C504.617249,366.628845 468.927155,360.362671 437.182922,339.850159 
	C392.000977,310.654602 368.273804,268.924286 369.956726,214.448395 
	C370.753571,188.655243 378.908844,164.813065 393.703674,143.451996 
	C394.508362,142.290176 394.956665,140.673492 396.814789,140.436005 
	C398.280609,142.264618 396.648071,143.536072 395.961182,144.837875 
	C384.093597,167.328674 380.162689,191.376495 382.601837,216.442062 
	C385.857147,249.895203 400.529846,277.854767 425.242340,300.398376 
	C444.835999,318.272369 468.040894,328.724854 494.326569,332.722473 
	C514.190735,335.743561 533.479553,333.524933 552.600220,328.135559 
	C553.399902,327.910187 554.226257,327.779205 555.428345,327.511536 
z"/>
<path fill="#000000" opacity="1.000000" stroke="none" 
	d="
M453.787323,217.777939 
	C455.503479,216.443970 456.959869,215.355057 458.416260,214.266129 
	C467.033722,218.597122 469.259460,223.767151 466.309387,233.365479 
	C469.502197,232.432007 472.303986,231.022110 475.405670,230.607758 
	C478.315918,230.218994 479.713165,231.022354 480.034210,234.116257 
	C481.030792,243.719727 474.993713,252.406723 465.560547,254.617325 
	C465.079803,254.729980 464.501434,254.571609 464.081482,254.773926 
	C461.794281,255.875839 460.432770,260.143097 457.196747,257.788239 
	C450.411377,252.850571 440.013306,251.915146 438.268585,241.214676 
	C438.215546,240.889328 438.057678,240.582458 437.983673,240.258957 
	C435.949280,231.364655 438.349182,229.105850 447.022461,231.731140 
	C447.953857,232.013062 448.911713,232.207367 450.327423,232.559174 
	C450.250092,227.261765 449.673157,222.077621 453.787323,217.777939 
z"/>
<path fill="#000000" opacity="1.000000" stroke="none" 
	d="
M528.081299,110.345253 
	C528.552063,121.023415 523.706299,128.719772 516.131165,136.317078 
	C513.617554,130.870529 514.210754,125.866684 513.624573,120.737244 
	C511.546783,125.527016 513.234314,130.657318 510.996307,134.919205 
	C508.426941,135.597992 507.414154,133.789459 506.320709,132.469879 
	C499.911987,124.735870 497.146362,116.059593 499.600800,106.025543 
	C501.502533,98.251083 505.470001,91.623337 510.559875,85.577713 
	C512.434448,83.351120 514.184509,82.973526 516.163025,85.595848 
	C521.703735,92.939476 526.899902,100.424751 528.081299,110.345253 
z"/>
<path fill="#000000" opacity="1.000000" stroke="none" 
	d="
M401.258087,224.845184 
	C402.170502,221.299438 400.865967,217.836487 402.627472,214.456711 
	C407.013458,216.268585 402.701019,224.568039 410.180267,223.734329 
	C409.298492,218.114563 409.815643,212.763107 414.588867,208.366318 
	C419.351776,212.767395 420.027985,217.994980 419.353821,223.622131 
	C425.960449,223.626205 423.571747,217.371216 426.689697,213.734100 
	C428.267822,219.313614 428.361298,224.021408 427.019928,228.714081 
	C426.460846,230.669983 426.108795,232.013168 427.335938,234.136185 
	C429.744476,238.303192 425.998535,242.762207 427.558746,247.790833 
	C428.965363,252.324417 424.498077,256.659729 419.438385,258.300140 
	C415.732910,259.501495 417.623444,263.786041 415.261749,265.435730 
	C413.759491,265.568176 413.028381,264.769104 413.039612,263.724640 
	C413.076202,260.306671 410.866119,258.869751 408.231415,257.480499 
	C402.227356,254.314651 400.797882,250.703430 402.597992,244.010818 
	C402.723999,243.542252 403.044983,242.931198 402.869263,242.605423 
	C399.866913,237.039719 403.492004,230.870972 401.258087,224.845184 
z"/>
<path fill="#000000" opacity="1.000000" stroke="none" 
	d="
M507.073669,406.347473 
	C505.718597,408.831085 504.610840,411.074310 503.321686,413.207947 
	C500.657776,417.617035 497.287537,417.535706 494.667603,413.014404 
	C493.835663,411.578735 493.229614,410.014038 492.465607,408.536621 
	C491.714111,407.083527 491.153839,405.484039 489.374481,404.276001 
	C487.581940,407.756439 488.463623,411.380463 488.425659,414.837402 
	C488.390106,418.078827 487.910156,420.335724 483.851196,420.261963 
	C479.971680,420.191406 479.703064,417.892242 479.717102,414.956268 
	C479.761627,405.635071 479.700836,396.313416 479.723755,386.992035 
	C479.728485,385.063843 479.241394,382.745453 482.061371,382.225891 
	C484.631500,381.752350 487.172729,381.860687 488.683105,384.422791 
	C491.046967,388.432770 493.251678,392.536438 495.536774,396.593109 
	C496.497986,398.299469 497.104431,400.292572 499.445282,401.365417 
	C503.204254,398.619202 503.889954,393.871490 506.245575,390.210388 
	C508.614563,386.528564 509.259949,380.417236 515.764832,382.167358 
	C521.901917,383.818481 518.505981,389.205414 518.772583,392.785706 
	C519.327209,400.233673 518.858093,407.753845 518.939636,415.242950 
	C518.973999,418.400146 518.153625,420.271606 514.494019,420.302002 
	C510.962616,420.331329 509.729034,418.703217 509.772766,415.462036 
	C509.824341,411.640137 509.784882,407.817047 509.784882,403.938202 
	C507.919128,403.783722 507.976288,405.355438 507.073669,406.347473 
z"/>
<path fill="#000000" opacity="1.000000" stroke="none" 
	d="
M571.019165,254.334869 
	C567.643005,257.065063 564.477539,258.582764 561.743164,254.136719 
	C560.551331,252.198761 558.955139,252.211960 556.997253,252.475418 
	C552.705688,253.052917 549.600098,250.074203 550.430847,245.843292 
	C550.947571,243.211975 550.107788,241.946701 548.083252,240.520432 
	C544.542053,238.025620 544.735718,234.017975 548.478333,231.811462 
	C550.847351,230.414810 551.773987,229.091858 550.790955,226.205093 
	C549.458374,222.292023 552.696838,218.829025 556.702942,219.909348 
	C559.313965,220.613419 560.524048,220.119843 561.897705,217.818451 
	C564.230164,213.910690 568.630005,214.062607 571.413818,217.979340 
	C572.708435,219.800812 574.035400,220.571487 576.408081,220.220947 
	C580.548706,219.609222 583.080505,221.993240 582.545776,226.107620 
	C582.232422,228.518234 583.274780,229.804550 584.740295,231.259415 
	C588.359558,234.852310 588.317322,237.935944 584.364929,241.150009 
	C582.508972,242.659241 582.284729,244.123642 582.663208,246.343704 
	C583.396118,250.642120 580.467957,253.385513 576.337891,252.208481 
	C573.923218,251.520325 572.521240,252.280548 571.019165,254.334869 
M573.645325,234.907043 
	C572.815247,231.013397 569.957275,229.496964 566.432312,229.407318 
	C563.401123,229.330231 561.098267,231.107910 559.901611,233.906677 
	C558.703064,236.710007 560.057068,239.109329 561.802856,241.145020 
	C563.520630,243.147995 565.843933,244.033325 568.485535,243.127930 
	C571.995178,241.924973 573.901855,239.507645 573.645325,234.907043 
z"/>
<path fill="#000000" opacity="1.000000" stroke="none" 
	d="
M342.316559,393.789978 
	C341.180817,398.026428 341.017487,401.406769 343.052246,405.385437 
	C346.350159,411.833954 343.115051,417.757629 336.055878,419.448090 
	C329.190826,421.092072 322.154175,420.028748 315.193268,420.118378 
	C312.796387,420.149231 312.103851,418.389069 312.087189,416.409241 
	C312.001862,406.266815 311.983124,396.123810 311.952484,385.980988 
	C311.945282,383.588348 313.145691,382.167908 315.551147,382.119568 
	C321.688232,381.996277 327.861725,381.358734 333.921600,382.898682 
	C340.216095,384.498230 341.993011,386.756897 342.316559,393.789978 
M332.782562,410.885254 
	C335.685394,407.443787 333.846497,405.859772 330.392700,405.275574 
	C328.467468,404.949860 326.444824,405.207153 324.466187,405.188538 
	C322.142609,405.166687 321.294983,406.383453 321.312714,408.612640 
	C321.331818,411.014954 322.634064,411.801270 324.764557,411.768890 
	C327.226471,411.731476 329.718048,412.100281 332.782562,410.885254 
M323.251129,390.488159 
	C320.875732,391.593842 320.695465,393.852875 321.833191,395.429657 
	C323.628662,397.918091 326.665588,396.593628 329.176178,396.607208 
	C330.954376,396.616821 332.412109,395.632294 332.533661,393.673157 
	C332.659454,391.644928 331.179321,390.710876 329.449646,390.480225 
	C327.673645,390.243378 325.848267,390.376984 323.251129,390.488159 
z"/>
<path fill="#000000" opacity="1.000000" stroke="none" 
	d="
M452.076874,167.239334 
	C440.240662,167.309296 432.555969,161.245483 426.958374,152.068054 
	C424.892822,148.681580 423.437134,144.911514 421.835449,141.258469 
	C420.984955,139.318573 421.354950,137.850006 423.700165,137.011139 
	C434.875854,133.013580 451.106140,136.974823 458.620148,145.833954 
	C462.416107,150.309433 465.108978,155.341003 465.136871,161.330215 
	C462.753357,162.672226 461.407776,160.420929 459.524353,160.560898 
	C459.346191,162.887650 462.806152,162.994446 462.207855,165.767181 
	C459.483582,168.189606 455.831360,166.773605 452.076874,167.239334 
z"/>
<path fill="#000000" opacity="1.000000" stroke="none" 
	d="
M595.721069,135.877014 
	C606.140442,137.227966 606.238525,137.626221 602.033142,146.889221 
	C597.630188,156.587479 591.382202,164.269196 580.512390,166.585388 
	C575.103088,167.738037 569.451782,167.963501 563.879211,165.616943 
	C564.753296,162.033600 568.481567,161.835373 570.013123,158.685150 
	C567.189941,159.999863 564.816833,161.104935 562.407959,162.226715 
	C558.611633,148.531738 575.332642,135.317139 595.721069,135.877014 
z"/>
<path fill="#000000" opacity="1.000000" stroke="none" 
	d="
M495.590942,457.957947 
	C495.594757,455.829010 495.603119,454.164948 495.602844,452.500854 
	C495.601715,445.325958 491.489624,442.658875 484.855713,446.070984 
	C482.096771,447.490021 480.199188,447.430237 477.547302,446.104370 
	C473.688721,444.175171 470.065216,445.036743 467.427490,448.676941 
	C464.611664,452.562836 464.876587,456.866211 468.208374,460.508881 
	C471.144684,463.719147 474.817871,463.909790 478.148010,461.666504 
	C481.509583,459.402039 483.830322,460.024994 485.393799,463.298431 
	C487.068115,466.803864 483.851379,468.008026 481.681122,469.205475 
	C475.102875,472.835114 465.567780,471.040527 461.150665,465.574554 
	C455.953735,459.143585 455.814941,449.097015 460.836945,442.865753 
	C465.561707,437.003265 474.678864,435.350677 481.678772,439.103729 
	C482.700684,439.651642 483.681641,440.276001 485.043182,441.078003 
	C486.372192,438.065216 488.771973,437.499939 491.814789,437.623199 
	C497.128571,437.838470 502.460388,437.589172 507.784790,437.569366 
	C510.112640,437.560699 512.694580,437.234436 512.936218,440.690613 
	C513.158813,443.874146 511.593170,445.388000 508.476837,445.160706 
	C504.856628,444.896698 503.879150,446.780151 503.964203,450.018890 
	C504.099548,455.174316 503.976288,460.336029 504.057190,465.493591 
	C504.108368,468.755737 502.905670,470.388489 499.363281,470.320129 
	C495.781769,470.250977 495.314667,468.270020 495.491547,465.409088 
	C495.635101,463.087158 495.566193,460.752045 495.590942,457.957947 
z"/>
<path fill="#000000" opacity="1.000000" stroke="none" 
	d="
M634.941284,401.998474 
	C634.947449,397.011139 634.883484,392.521515 634.989014,388.035889 
	C635.040833,385.833069 634.287476,383.061829 637.429810,382.227600 
	C640.316956,381.461090 642.608093,382.586212 644.340088,384.997253 
	C647.054077,388.775513 649.789307,392.539307 652.570435,396.268280 
	C653.528870,397.553284 654.231323,399.159119 656.805115,399.828003 
	C656.805115,395.215057 656.895813,390.816223 656.774719,386.423218 
	C656.687073,383.246582 658.017944,381.898346 661.202942,381.932404 
	C664.336243,381.965912 666.279114,382.824646 666.229736,386.449188 
	C666.103027,395.755859 666.167786,405.065002 666.078186,414.372375 
	C666.057007,416.574921 666.826599,419.385559 663.579895,420.078003 
	C660.670166,420.698639 658.042725,420.216461 656.110962,417.463867 
	C652.589355,412.445862 648.899353,407.546051 644.794312,401.933441 
	C643.564148,406.810547 644.249023,411.021210 644.108093,415.153870 
	C644.003479,418.222565 643.309387,420.212219 639.627625,420.248199 
	C635.770813,420.285828 634.729675,418.336090 634.820007,414.963470 
	C634.931213,410.810120 634.906677,406.653198 634.941284,401.998474 
z"/>
<path fill="#000000" opacity="1.000000" stroke="none" 
	d="
M597.824402,249.882568 
	C595.443359,245.639206 595.291443,241.511978 596.919739,237.486618 
	C600.421326,228.830154 606.497986,221.787201 611.982117,212.840485 
	C617.242493,222.395279 624.086426,229.717514 626.111267,239.529495 
	C627.652832,246.999557 624.095093,253.361710 617.880981,256.013733 
	C610.757019,259.054047 603.226990,256.862183 597.824402,249.882568 
z"/>
<path fill="#000000" opacity="1.000000" stroke="none" 
	d="
M308.034424,402.757904 
	C306.967407,411.480438 303.015564,417.694946 294.757904,420.149780 
	C286.940063,422.473877 279.931061,420.728760 274.439514,414.388702 
	C269.034058,408.147949 268.337555,398.022125 272.704987,390.567413 
	C276.757324,383.650482 284.728577,380.320404 293.391937,381.925110 
	C301.224030,383.375854 306.720581,389.761414 307.907928,398.846313 
	C308.057953,399.994263 308.013428,401.167603 308.034424,402.757904 
M297.917908,399.771759 
	C297.552795,394.648560 294.840759,391.262543 289.826630,390.555237 
	C285.273132,389.912903 282.387360,392.958069 280.640198,396.760468 
	C278.639374,401.114960 280.229431,407.422516 283.713043,409.875061 
	C286.639160,411.935120 289.848450,412.305389 293.093170,410.646881 
	C297.199310,408.548126 298.192780,404.857117 297.917908,399.771759 
z"/>
<path fill="#000000" opacity="1.000000" stroke="none" 
	d="
M444.734009,412.893188 
	C444.708038,403.928619 444.782532,395.449158 444.614227,386.974518 
	C444.543152,383.396027 445.804138,381.726624 449.512939,381.898712 
	C454.972351,382.152008 460.500732,381.389282 465.850769,383.107178 
	C474.416473,385.857666 478.653778,395.224792 473.664520,402.605682 
	C470.303711,407.577545 470.658844,411.137848 474.045197,415.323212 
	C474.846161,416.313202 475.707550,417.448730 475.354980,418.934265 
	C469.934113,421.576477 466.704590,420.812286 463.676636,416.151886 
	C462.862000,414.898041 462.092224,413.615082 461.299683,412.346832 
	C460.197632,410.583282 458.603668,409.886536 456.609039,410.415497 
	C454.558838,410.959198 454.442902,412.739441 454.403992,414.418335 
	C454.336639,417.326141 454.521729,419.971466 450.257446,420.303009 
	C444.537109,420.747833 444.474976,417.351166 444.734009,412.893188 
M454.852020,399.743408 
	C456.586761,401.636353 458.831329,400.997162 460.886505,400.801056 
	C463.649261,400.537476 465.597961,399.034119 465.589417,396.065948 
	C465.580963,393.128357 463.602295,391.707794 460.922180,391.177338 
	C455.655670,390.135101 454.279236,391.839203 454.852020,399.743408 
z"/>
<path fill="#000000" opacity="1.000000" stroke="none" 
	d="
M762.674377,412.449280 
	C763.810242,414.805176 765.765869,416.441589 765.537537,418.970886 
	C759.703674,421.529236 756.858398,420.744232 753.859131,415.872437 
	C752.989380,414.459839 752.082092,413.060608 751.073425,411.746216 
	C750.074646,410.444702 748.644714,410.039246 747.050964,410.366974 
	C745.064209,410.775452 745.127258,412.419586 745.067993,413.901794 
	C744.937500,417.168182 745.040344,420.400757 740.219116,420.259460 
	C737.194519,420.170837 735.559570,419.319366 735.594055,415.972015 
	C735.696899,405.986359 735.664368,395.998962 735.634277,386.012421 
	C735.627319,383.706299 736.253540,382.025421 738.895996,382.014038 
	C744.540039,381.989716 750.245911,381.310211 755.772400,382.959961 
	C765.656921,385.910645 769.244751,396.804474 762.709839,404.822296 
	C760.438293,407.609314 760.318604,409.628357 762.674377,412.449280 
M755.874695,395.652863 
	C755.244812,390.895325 751.674561,390.555176 748.080688,390.782104 
	C744.838928,390.986816 744.953491,393.691132 744.988831,396.045349 
	C745.021179,398.202820 744.868225,400.691284 747.946716,400.865753 
	C751.445984,401.064117 755.228821,401.464294 755.874695,395.652863 
z"/>
<path fill="#000000" opacity="1.000000" stroke="none" 
	d="
M780.374146,396.005096 
	C784.119568,397.175629 787.633667,396.605835 791.110840,396.686218 
	C794.163452,396.756836 795.164856,398.260345 795.155273,401.082947 
	C795.145447,403.981079 793.953918,405.405243 790.963623,405.307037 
	C788.303162,405.219666 785.637146,405.314209 782.973877,405.296387 
	C780.836975,405.282104 779.428650,406.031281 779.390320,408.424042 
	C779.352112,410.810394 780.708435,411.642944 782.862488,411.653809 
	C786.524536,411.672272 790.187378,411.756104 793.848267,411.702728 
	C796.559021,411.663239 797.861023,412.950592 797.907959,415.586792 
	C797.954773,418.215485 797.211060,420.226166 794.061462,420.227417 
	C787.236389,420.230103 780.411255,420.226837 773.586182,420.245087 
	C771.093201,420.251740 769.913696,418.972870 769.914185,416.555206 
	C769.916260,406.234344 769.948059,395.913513 769.943359,385.592651 
	C769.942200,382.964417 771.560120,382.068359 773.798279,382.047577 
	C780.289062,381.987244 786.781128,381.987457 793.271851,382.050171 
	C796.292480,382.079346 797.172546,383.961121 797.101501,386.714966 
	C797.028625,389.540283 795.536255,390.469330 792.943420,390.423035 
	C789.782227,390.366638 786.610718,390.298370 783.458435,390.484131 
	C780.111328,390.681305 778.456665,392.238068 780.374146,396.005096 
z"/>
<path fill="#000000" opacity="1.000000" stroke="none" 
	d="
M223.429871,390.602478 
	C215.082123,393.832458 212.438705,402.056976 217.499283,408.244904 
	C219.785217,411.040131 222.775757,412.156403 226.393463,411.281036 
	C230.269684,410.343140 229.858521,407.258118 229.637238,404.477753 
	C229.391388,401.388489 230.280472,399.823608 233.666153,399.786224 
	C237.035019,399.749023 238.681320,400.960236 238.410355,404.446869 
	C238.307617,405.768829 238.392441,407.105988 238.403641,408.436127 
	C238.478836,417.357269 237.234283,418.918427 228.532562,420.806458 
	C220.118073,422.632111 211.124130,418.296875 207.216400,410.531647 
	C203.163971,402.478882 205.269653,391.201447 211.821243,385.869232 
	C218.412720,380.504608 229.368118,380.131409 236.077255,385.043701 
	C237.980957,386.437500 239.482132,388.034485 237.542496,390.380981 
	C235.952133,392.304901 234.711792,395.338318 231.237320,392.951874 
	C229.019211,391.428406 226.581909,390.387756 223.429871,390.602478 
z"/>
<path fill="#000000" opacity="1.000000" stroke="none" 
	d="
M603.867432,399.003967 
	C603.871094,394.676208 604.013306,390.840851 603.836670,387.020264 
	C603.681458,383.662384 605.009460,382.008881 608.397583,382.013947 
	C614.556580,382.023193 620.715759,382.028198 626.874451,381.980133 
	C630.312012,381.953308 630.958130,384.025452 630.942017,386.894745 
	C630.925537,389.818573 629.391479,390.562927 626.784424,390.442749 
	C623.627258,390.297211 620.459961,390.380646 617.297302,390.343536 
	C615.019958,390.316833 613.400085,390.872681 613.472229,393.674408 
	C613.538391,396.242310 615.095276,396.662354 617.126709,396.639526 
	C619.290222,396.615234 621.460754,396.681458 623.615295,396.527405 
	C626.700623,396.306793 628.906372,396.989166 628.957764,400.666595 
	C629.005920,404.112671 627.257935,405.448975 623.968445,405.270752 
	C622.142212,405.171814 620.304810,405.180481 618.476257,405.246704 
	C616.223999,405.328308 613.481140,404.753845 613.383240,408.357483 
	C613.286316,411.923096 615.882263,411.684235 618.240723,411.696228 
	C621.237061,411.711487 624.243408,411.826813 627.227722,411.630402 
	C630.561462,411.410950 631.510803,412.878235 631.533997,416.043488 
	C631.556091,419.066833 630.547363,420.294220 627.526550,420.247528 
	C621.035522,420.147156 614.541504,420.156616 608.049744,420.222076 
	C605.076355,420.252014 603.821838,418.872375 603.846008,415.983673 
	C603.891907,410.490356 603.864380,404.996460 603.867432,399.003967 
z"/>
<path fill="#000000" opacity="1.000000" stroke="none" 
	d="
M730.136475,403.697937 
	C728.415283,417.928711 720.538757,423.934021 709.228088,420.169647 
	C703.770935,418.353424 700.741577,414.514954 699.740784,409.018738 
	C698.330505,401.273376 699.198486,393.421967 698.849304,385.624664 
	C698.701721,382.329376 701.007202,381.960846 703.544983,381.957428 
	C706.171936,381.953888 708.780823,382.023529 708.810181,385.624390 
	C708.848083,390.279144 708.742554,394.934875 708.752686,399.590057 
	C708.757019,401.576111 708.785706,403.574158 709.001404,405.545074 
	C709.382141,409.021912 710.829346,411.843750 714.844116,411.599365 
	C718.848389,411.355560 720.625061,408.527496 720.747620,404.826355 
	C720.934631,399.177582 720.880493,393.518890 720.834595,387.865173 
	C720.808044,384.589050 721.086121,381.914398 725.478027,381.905487 
	C729.803101,381.896698 730.236755,384.383575 730.157654,387.767303 
	C730.037231,392.920227 730.139771,398.078400 730.136475,403.697937 
z"/>
<path fill="#000000" opacity="1.000000" stroke="none" 
	d="
M427.749084,382.978333 
	C432.966583,395.034393 437.889984,406.817963 442.789398,418.544159 
	C436.943054,421.530426 433.945862,420.944763 431.784760,416.218506 
	C429.729370,411.723419 425.837555,412.662201 422.350830,412.463104 
	C419.127014,412.279083 415.882172,412.500427 414.617798,416.396423 
	C413.972107,418.385986 413.054474,419.896729 410.592285,420.212250 
	C404.795563,420.955109 403.494843,419.570221 405.621155,414.183411 
	C409.045166,405.508911 412.582306,396.878204 416.157318,388.264496 
	C418.982971,381.456268 420.177063,380.921906 427.749084,382.978333 
M420.673584,401.066528 
	C420.746796,405.675659 423.570251,403.591217 425.824402,403.457397 
	C425.847931,400.778168 425.373718,398.644409 423.545135,397.029907 
	C421.606506,397.467133 421.427246,399.078583 420.673584,401.066528 
z"/>
<path fill="#000000" opacity="1.000000" stroke="none" 
	d="
M347.721436,388.473389 
	C346.895203,383.556366 348.491638,381.620667 353.278412,381.915466 
	C358.748108,382.252350 364.255432,382.063110 369.744293,381.973572 
	C373.433014,381.913391 374.607117,383.642303 374.561371,387.202454 
	C374.508362,391.323181 371.877747,390.568481 369.412201,390.514862 
	C366.418915,390.449738 363.424622,390.422516 360.430603,390.398285 
	C358.475861,390.382477 357.303925,391.172668 357.236053,393.321136 
	C357.163177,395.628113 358.191071,396.720551 360.477722,396.711853 
	C362.973114,396.702393 365.476746,396.849426 367.962067,396.693573 
	C371.437866,396.475647 372.787537,398.119141 372.728638,401.419556 
	C372.666260,404.914764 370.495850,405.399536 367.673920,405.264252 
	C365.349884,405.152893 363.016724,405.236603 360.687714,405.220703 
	C358.549805,405.206085 357.179169,405.956238 357.181335,408.380646 
	C357.183380,410.695374 358.316956,411.718231 360.553619,411.698303 
	C364.213409,411.665741 367.876770,411.728546 371.531921,411.582794 
	C374.342987,411.470673 375.430573,412.682220 375.352661,415.433014 
	C375.281342,417.950653 375.150269,420.187592 371.783875,420.173706 
	C364.963074,420.145569 358.142090,420.161194 351.321198,420.153687 
	C348.010437,420.150024 347.732208,417.887695 347.734680,415.370758 
	C347.743408,406.552673 347.729309,397.734589 347.721436,388.473389 
z"/>
<path fill="#000000" opacity="1.000000" stroke="none" 
	d="
M526.651489,385.635803 
	C533.247498,380.209656 540.105896,380.946716 547.157288,383.491272 
	C549.691101,384.405670 550.475342,385.936554 549.480774,388.506805 
	C548.562622,390.879272 547.623291,392.809784 544.455750,391.642029 
	C542.285767,390.841949 540.044617,390.085480 537.660339,390.275269 
	C535.813416,390.422241 533.760071,390.573853 533.466492,392.918060 
	C533.203247,395.019989 535.028259,395.674255 536.595947,396.220673 
	C539.570435,397.257324 542.629333,398.060028 545.576111,399.165375 
	C549.591125,400.671448 551.567688,403.781830 551.715515,407.994598 
	C551.864380,412.240845 550.476746,415.727997 546.704590,418.170319 
	C539.529480,422.815918 532.428040,421.424591 525.377441,418.068481 
	C522.498047,416.697876 522.612000,414.415680 523.902588,411.769684 
	C525.156799,409.198425 526.746277,408.952271 529.127625,410.108704 
	C531.853333,411.432312 534.795898,412.013763 537.841736,411.822571 
	C539.388550,411.725464 540.993103,411.334991 541.370850,409.617249 
	C541.790710,407.707916 540.135254,407.018890 538.757568,406.526642 
	C536.573181,405.746063 534.265503,405.311768 532.077271,404.540192 
	C522.497253,401.162079 520.403137,394.241547 526.651489,385.635803 
z"/>
<path fill="#000000" opacity="1.000000" stroke="none" 
	d="
M806.669983,383.230225 
	C812.759155,380.952301 818.400330,381.090454 824.005615,383.605499 
	C826.395752,384.677948 827.352051,386.121033 826.222595,388.702454 
	C825.196106,391.048676 824.121338,392.827301 821.023621,391.569061 
	C818.562256,390.569305 815.948425,389.829407 813.225708,390.428040 
	C811.860535,390.728149 810.712585,391.473694 810.526733,393.000549 
	C810.358704,394.380432 811.330811,395.200317 812.439209,395.616241 
	C814.768250,396.490265 817.160339,397.196533 819.526978,397.970337 
	C825.701721,399.989319 829.038879,403.769012 829.048462,408.755798 
	C829.058838,414.114471 825.212463,418.546570 819.053040,420.346741 
	C813.260010,422.039886 807.865417,420.772949 802.634460,418.220825 
	C799.784607,416.830475 799.601379,414.836761 800.796509,412.035187 
	C802.089600,409.004028 803.749390,409.054932 806.256958,410.360840 
	C808.648926,411.606537 811.306885,412.030884 814.015686,411.884613 
	C815.851013,411.785461 818.072876,411.797302 818.372131,409.495331 
	C818.631287,407.500854 816.656677,406.853790 815.078430,406.323273 
	C813.346313,405.741028 811.537048,405.388550 809.804321,404.807861 
	C805.611511,403.402832 801.494202,401.774353 800.733765,396.642426 
	C799.921814,391.163910 800.853821,386.307312 806.669983,383.230225 
z"/>
<path fill="#000000" opacity="1.000000" stroke="none" 
	d="
M585.463379,401.904358 
	C587.593262,396.686188 589.503235,391.723785 591.630310,386.856293 
	C593.981262,381.476257 596.331604,380.754730 602.604492,383.427032 
	C600.259460,389.546173 597.927368,395.694794 595.546509,401.824493 
	C593.625366,406.770416 591.511902,411.646149 589.740112,416.643921 
	C588.618896,419.806793 586.417908,420.270477 583.511658,420.300171 
	C580.640564,420.329468 578.914246,419.384338 577.824951,416.606476 
	C574.129333,407.181793 570.163940,397.862640 566.492126,388.429047 
	C565.734131,386.481689 562.832397,383.517517 566.858398,382.346375 
	C569.949646,381.447174 573.882935,380.712860 575.667236,385.347473 
	C577.753906,390.767487 580.022583,396.120209 582.341187,401.445984 
	C582.865417,402.650146 583.481750,405.434753 585.463379,401.904358 
z"/>
<path fill="#000000" opacity="1.000000" stroke="none" 
	d="
M25.682055,36.154526 
	C16.633892,26.993393 11.128887,15.738517 4.046865,5.599803 
	C3.753737,5.180158 4.009421,4.377162 4.009421,3.940248 
	C5.011414,2.870115 6.059132,2.920537 6.952789,3.369120 
	C18.428387,9.129455 31.010193,12.762528 41.075901,21.256540 
	C43.009167,22.887939 43.887558,24.403637 42.692036,26.770086 
	C42.472656,27.204329 42.430733,27.727301 42.300163,28.207481 
	C41.495701,31.165922 43.431187,35.021976 40.417595,37.100372 
	C36.794617,39.599049 32.325600,36.795856 28.293842,37.998882 
	C27.716011,38.171303 26.726259,36.963234 25.682055,36.154526 
z"/>
<path fill="#000000" opacity="1.000000" stroke="none" 
	d="
M389.373444,397.101440 
	C392.834778,399.134003 396.351379,397.723267 399.763641,398.075653 
	C402.434662,398.351440 404.149078,399.065582 404.159668,402.199799 
	C404.169891,405.225769 403.190979,407.014587 399.923645,406.961823 
	C399.258972,406.951080 398.593628,406.990936 397.928497,407.000061 
	C389.517822,407.115479 389.437653,407.110626 388.974976,415.429108 
	C388.796509,418.637085 387.724396,420.295624 384.205444,420.280823 
	C380.745850,420.266296 378.857941,419.181915 378.892303,415.449585 
	C378.981201,405.804413 379.007294,396.158051 378.964752,386.512604 
	C378.950684,383.319336 380.467407,381.990448 383.522278,382.004333 
	C389.675446,382.032349 395.828796,382.019775 401.982056,382.024841 
	C405.062439,382.027374 406.428436,383.428497 406.368958,386.642365 
	C406.310333,389.809723 404.802826,390.597748 401.969299,390.493317 
	C399.488800,390.401886 396.934692,391.110229 394.517181,390.755524 
	C389.348511,389.997223 388.428558,392.506226 389.373444,397.101440 
z"/>
<path fill="#000000" opacity="1.000000" stroke="none" 
	d="
M428.320099,462.688232 
	C424.952393,460.589233 423.226440,461.519592 423.275513,465.084625 
	C423.321228,468.403168 422.654602,470.529266 418.613068,470.341522 
	C414.224304,470.137634 414.699402,467.232666 414.708282,464.361664 
	C414.730988,457.034119 414.804352,449.704590 414.661865,442.379639 
	C414.595306,438.959442 415.925873,437.495758 419.361633,437.649597 
	C423.018921,437.813324 426.710632,437.483734 430.345398,437.821228 
	C439.490723,438.670319 444.813141,447.640381 439.963196,455.261566 
	C436.988800,459.935516 437.546997,462.997864 440.579437,466.679749 
	C441.076416,467.283142 441.265533,468.140167 441.590912,468.866577 
	C436.942535,471.410278 433.993591,470.875763 431.334747,467.087708 
	C430.380280,465.727844 429.498016,464.317261 428.320099,462.688232 
M429.693054,445.597137 
	C428.387482,445.503418 427.063446,445.226318 425.780243,445.355255 
	C423.333252,445.601105 423.168610,447.551727 423.240173,449.417816 
	C423.311523,451.278198 422.538025,453.771820 425.229034,454.348755 
	C427.952179,454.932556 430.657013,454.162445 432.171478,451.701599 
	C433.575867,449.419586 432.899872,447.259949 429.693054,445.597137 
z"/>
<path fill="#000000" opacity="1.000000" stroke="none" 
	d="
M572.922729,461.876770 
	C572.911987,455.227020 572.936890,449.062164 572.881226,442.898010 
	C572.855103,440.000183 573.121582,437.721313 576.944641,437.426300 
	C580.856445,437.124451 581.286621,439.261353 581.488708,442.253906 
	C581.770142,446.422394 581.741394,450.668060 588.265991,449.926453 
	C592.041870,449.497223 593.174866,448.124542 592.983398,444.650970 
	C592.867310,442.545105 592.252869,440.114197 593.992859,438.451172 
	C595.417419,437.089691 597.475281,437.538666 599.259583,437.903442 
	C601.152527,438.290375 601.257324,439.924347 601.261841,441.456970 
	C601.286194,449.787384 601.223755,458.118530 601.319214,466.447998 
	C601.356201,469.675354 599.601685,470.291382 596.877075,470.317688 
	C594.065186,470.344849 592.924316,469.043518 592.981079,466.390656 
	C592.998901,465.557892 592.966919,464.719330 593.053894,463.893524 
	C593.505737,459.600708 591.952637,457.515045 587.284302,457.269318 
	C582.448608,457.014862 581.874146,459.386230 581.815369,463.296326 
	C581.715332,469.941864 580.439514,471.254364 575.957336,470.199066 
	C571.235168,469.087189 573.413757,465.181274 572.922729,461.876770 
z"/>
<path fill="#000000" opacity="1.000000" stroke="none" 
	d="
M575.185425,114.904701 
	C575.381775,125.619919 570.683472,132.853256 561.527710,137.183426 
	C557.075684,139.288956 552.051270,136.613724 551.062866,131.861923 
	C548.484070,119.464302 558.308167,104.985237 570.653564,102.907364 
	C573.223206,102.474861 574.521729,103.668884 574.768250,105.986542 
	C575.066040,108.785858 575.064697,111.617004 575.185425,114.904701 
z"/>
<path fill="#000000" opacity="1.000000" stroke="none" 
	d="
M461.016785,135.146332 
	C452.241425,128.078751 448.759308,116.368576 451.931885,105.741478 
	C452.741058,103.030937 454.256592,102.277443 456.773224,103.447395 
	C468.025146,108.678200 476.780579,114.797417 475.329132,130.668411 
	C475.115051,133.009232 475.976807,136.628143 471.335022,135.306976 
	C468.023071,141.236771 464.663818,136.239761 461.016785,135.146332 
z"/>
<path fill="#000000" opacity="1.000000" stroke="none" 
	d="
M680.411865,441.538177 
	C685.233582,446.801483 686.026001,452.792389 684.655334,459.046021 
	C683.005005,466.575470 678.146729,470.306458 670.335449,470.272675 
	C656.232117,470.211670 658.030701,472.194092 657.932251,457.843323 
	C657.895752,452.527985 657.889099,447.212219 657.918396,441.896881 
	C657.928833,440.006622 658.150574,437.841919 660.579956,437.855774 
	C667.266235,437.893951 674.321594,436.147461 680.411865,441.538177 
M677.483276,455.225525 
	C677.398193,452.352386 676.986694,449.553619 674.832581,447.424011 
	C672.787048,445.401672 670.202942,444.690216 667.477356,445.489014 
	C664.629272,446.323730 665.473267,448.938660 665.367981,450.975647 
	C665.256775,453.128937 665.249939,455.296875 665.363525,457.449646 
	C665.462219,459.322021 664.558594,461.859772 667.129211,462.602020 
	C669.905762,463.403717 672.755737,463.138153 674.985535,460.841705 
	C676.307434,459.480255 676.880188,457.748108 677.483276,455.225525 
z"/>
<path fill="#000000" opacity="1.000000" stroke="none" 
	d="
M535.339783,445.180664 
	C532.093750,445.230927 529.269226,445.220795 526.446472,445.285126 
	C524.944458,445.319366 523.806641,446.025482 523.792419,447.644012 
	C523.777039,449.405365 525.147156,449.748718 526.557312,449.800659 
	C528.715027,449.880157 530.875610,449.932526 533.034424,449.917328 
	C536.135254,449.895538 537.010132,451.726257 536.981506,454.431213 
	C536.951965,457.222473 535.238647,457.603851 532.957581,457.472015 
	C530.804504,457.347595 528.639709,457.419922 526.480042,457.418701 
	C524.751038,457.417725 523.580261,458.123627 523.471680,459.990692 
	C523.344360,462.181824 524.686401,462.917542 526.597900,462.932953 
	C529.421509,462.955750 532.245911,462.929840 535.069580,462.898529 
	C537.560059,462.870941 539.219666,463.624664 539.265320,466.542328 
	C539.309814,469.390320 537.904541,470.347687 535.280762,470.316528 
	C529.964722,470.253387 524.646729,470.212555 519.331421,470.292450 
	C516.412048,470.336273 514.979309,469.032959 514.972839,466.165039 
	C514.954346,458.024048 514.994751,449.882782 514.947327,441.742035 
	C514.930237,438.809998 516.226196,437.595367 519.178589,437.600342 
	C524.156250,437.608734 529.133789,437.312134 534.112610,437.258820 
	C535.901794,437.239624 538.092834,437.144867 538.261353,439.708496 
	C538.402527,441.856110 539.363892,444.624390 535.339783,445.180664 
z"/>
<path fill="#000000" opacity="1.000000" stroke="none" 
	d="
M382.475281,461.143066 
	C379.273376,448.640381 383.753387,439.799866 394.187439,437.343414 
	C398.829651,436.250488 403.092285,437.190063 407.041290,439.727509 
	C408.832336,440.878357 411.232910,441.980164 409.635803,444.700378 
	C408.234283,447.087524 406.050293,448.128510 403.272217,446.683929 
	C401.318756,445.668121 399.269348,445.074829 397.039337,445.282990 
	C392.865509,445.672546 389.602661,449.453918 389.618195,453.886353 
	C389.634491,458.552582 393.128113,462.820618 397.157867,462.958557 
	C400.359161,463.068146 402.806641,462.319244 402.327637,458.213898 
	C401.999207,455.398834 402.166931,452.824341 406.150970,452.743652 
	C410.078033,452.664124 410.427124,455.096100 410.238281,458.001221 
	C409.953308,462.384583 411.876831,467.477417 405.557739,469.701080 
	C398.287659,472.259369 390.023132,471.010040 385.696136,466.023163 
	C384.510956,464.657257 383.637817,463.020599 382.475281,461.143066 
z"/>
<path fill="#000000" opacity="1.000000" stroke="none" 
	d="
M354.130127,453.201477 
	C355.666809,449.287964 357.128967,445.757690 358.425903,442.167755 
	C359.404907,439.457916 360.700958,437.742310 364.050873,437.607452 
	C367.550568,437.466583 369.202606,439.004272 370.363556,441.921326 
	C373.960571,450.959595 377.630676,459.968750 381.402832,469.312195 
	C377.148956,470.626129 374.012848,471.359497 371.780731,466.811432 
	C369.668182,462.506927 359.474731,462.798187 357.100739,467.077972 
	C356.160278,468.773468 355.275208,470.269592 353.089600,470.221710 
	C351.475952,470.186371 349.589996,470.800415 348.459015,469.212860 
	C347.436981,467.778168 348.544067,466.366730 349.114227,465.018097 
	C350.730316,461.195312 352.360168,457.378357 354.130127,453.201477 
M362.078796,454.230530 
	C362.522247,458.486786 364.976624,456.416260 367.285522,456.107666 
	C366.580780,453.499573 366.138977,451.235626 364.204865,449.082825 
	C363.417389,450.935303 362.848969,452.272522 362.078796,454.230530 
z"/>
<path fill="#000000" opacity="1.000000" stroke="none" 
	d="
M678.047729,381.918579 
	C683.535645,381.905579 688.533325,381.932678 693.529663,381.866425 
	C696.685852,381.824585 698.082703,383.309998 698.032898,386.432526 
	C697.986572,389.336121 696.771301,390.714722 693.731445,390.462280 
	C688.949524,390.065125 687.203064,392.612640 687.296936,397.131622 
	C687.424927,403.292175 687.210022,409.460876 687.387024,415.619049 
	C687.488892,419.163544 685.919250,420.257721 682.603088,420.286560 
	C679.145447,420.316589 677.814819,418.858856 677.865295,415.500153 
	C677.962830,409.005524 677.776001,402.505707 677.928711,396.013214 
	C678.011047,392.513855 676.681519,390.525238 673.126343,390.580536 
	C669.550659,390.636169 667.330078,389.665833 667.667236,385.498108 
	C667.999207,381.394531 670.993591,382.098602 673.559814,381.960968 
	C674.889099,381.889648 676.224365,381.929565 678.047729,381.918579 
z"/>
<path fill="#000000" opacity="1.000000" stroke="none" 
	d="
M551.771423,447.928101 
	C549.783997,450.547485 549.812134,453.220886 550.169861,455.875397 
	C551.052368,462.423706 556.618652,465.329773 562.112854,461.689911 
	C565.411438,459.504669 567.249268,460.414032 568.970398,463.152466 
	C570.799744,466.063202 568.327271,467.497528 566.519409,468.725311 
	C560.746643,472.645874 550.305420,471.384064 545.720825,466.408600 
	C539.481750,459.637573 539.130981,449.634583 544.890381,442.720673 
	C549.786560,436.842987 559.157654,435.099731 565.721069,439.082214 
	C567.648376,440.251648 570.815796,441.299438 569.172241,444.634430 
	C567.637024,447.749603 565.227966,448.127014 562.125122,446.355072 
	C558.591003,444.336823 555.095215,444.820312 551.771423,447.928101 
z"/>
<path fill="#000000" opacity="1.000000" stroke="none" 
	d="
M253.124512,384.424988 
	C253.211197,391.703339 253.477905,398.541626 253.141541,405.350189 
	C252.895889,410.322021 255.012177,411.984161 259.607208,411.648682 
	C261.593719,411.503632 263.603516,411.711121 265.597900,411.633514 
	C268.900116,411.505066 269.973511,413.320526 269.973907,416.291870 
	C269.974335,419.379364 268.211029,420.280457 265.468689,420.258881 
	C259.808502,420.214325 254.144638,420.127411 248.488266,420.280060 
	C244.710541,420.381989 243.629852,418.631531 243.684540,415.104797 
	C243.826477,405.950378 243.675369,396.791748 243.728287,387.635345 
	C243.739182,385.750366 242.973419,383.203674 245.481888,382.439514 
	C248.098099,381.642487 251.069199,380.838165 253.124512,384.424988 
z"/>
<path fill="#000000" opacity="1.000000" stroke="none" 
	d="
M650.470825,445.475891 
	C647.786011,447.250977 648.392944,449.745819 648.353882,451.993896 
	C648.273010,456.641083 648.330811,461.290680 648.333374,465.939301 
	C648.334656,468.271057 648.057495,470.261414 644.933289,470.269379 
	C641.767578,470.277435 640.970886,468.425385 640.961304,465.782196 
	C640.942078,460.469574 640.866028,455.155548 640.960022,449.844727 
	C641.012512,446.880951 640.197388,445.040344 636.804565,445.140930 
	C634.214905,445.217712 632.825684,443.901398 632.847229,441.172546 
	C632.870728,438.193085 634.697327,437.668213 637.144165,437.689178 
	C641.626282,437.727539 646.109070,437.666412 650.591614,437.672211 
	C653.227112,437.675598 656.163208,437.167053 656.527100,441.137207 
	C656.945374,445.701172 653.478149,444.951477 650.470825,445.475891 
z"/>
<path fill="#000000" opacity="1.000000" stroke="none" 
	d="
M629.861206,470.313995 
	C615.945679,470.335938 615.953491,470.335968 616.021667,456.984314 
	C616.047913,451.842926 616.033447,446.701355 616.030701,441.559845 
	C616.029480,439.342773 616.554688,437.706360 619.273804,437.535797 
	C621.903015,437.370880 623.470886,438.199066 623.558777,440.988220 
	C623.715210,445.953156 623.889038,450.918243 623.968811,455.884674 
	C624.078979,462.744263 624.044800,462.731476 630.793884,462.914490 
	C633.239929,462.980774 636.046326,462.504822 636.174622,466.323853 
	C636.323853,470.766418 633.141052,470.238647 629.861206,470.313995 
z"/>
<path fill="#000000" opacity="1.000000" stroke="none" 
	d="
M445.269775,463.751495 
	C445.208252,456.209351 445.175690,449.080444 445.036530,441.953613 
	C444.977783,438.945709 446.069885,437.253937 449.294891,437.186523 
	C452.722504,437.114868 454.031067,438.806091 453.994812,442.073181 
	C453.912140,449.533813 453.890594,456.995789 453.926147,464.456818 
	C453.941559,467.695953 453.801117,470.452301 449.330231,470.336426 
	C444.728729,470.217224 444.917053,467.335419 445.269775,463.751495 
z"/>
<path fill="#000000" opacity="1.000000" stroke="none" 
	d="
M478.604919,108.053558 
	C475.965759,103.063766 477.208862,98.335442 478.173431,93.639412 
	C478.631042,91.411537 479.972107,90.714539 482.218353,91.540665 
	C488.213531,93.745529 493.306366,100.784027 493.189697,107.390129 
	C493.145142,109.913834 493.858185,112.533401 490.126312,114.282089 
	C486.412628,116.022247 484.520203,114.354820 482.302521,112.523514 
	C480.927917,111.388374 479.934631,109.791473 478.604919,108.053558 
z"/>
<path fill="#000000" opacity="1.000000" stroke="none" 
	d="
M537.435669,115.243973 
	C534.650879,114.243347 533.558655,112.527885 533.195862,109.932365 
	C532.260315,103.238686 537.651062,93.933228 543.912598,91.741898 
	C545.441956,91.206680 546.890564,90.868690 547.748291,92.685104 
	C551.476196,100.579811 549.039185,114.117340 537.435669,115.243973 
z"/>
<path fill="#000000" opacity="1.000000" stroke="none" 
	d="
M530.648438,168.066727 
	C532.281982,163.645767 535.367310,161.354141 539.317017,160.010376 
	C542.524536,158.919113 544.211548,160.023788 543.947083,163.427902 
	C543.645142,167.315155 542.502380,170.907150 539.359497,173.549805 
	C537.147949,175.409363 534.919495,177.177246 531.804626,175.449554 
	C528.522705,173.629227 530.051331,170.946228 530.648438,168.066727 
z"/>
<path fill="#000000" opacity="1.000000" stroke="none" 
	d="
M482.679382,163.934067 
	C482.918182,159.726868 484.838257,159.224976 488.084717,160.422943 
	C492.707916,162.128937 495.460510,165.292816 496.466705,170.045715 
	C496.855835,171.883865 496.943695,173.678436 495.194733,174.995407 
	C493.537170,176.243484 491.944550,176.039551 490.104156,175.210678 
	C485.367889,173.077515 483.089233,169.387589 482.679382,163.934067 
z"/>
<path fill="#000000" opacity="1.000000" stroke="none" 
	d="
M449.061096,129.962463 
	C445.776459,133.474808 442.522644,131.849777 439.407288,130.297012 
	C435.704590,128.451492 433.789825,125.128029 433.115570,121.199432 
	C432.698669,118.770515 434.712372,118.722115 436.424927,118.653496 
	C442.944153,118.392296 447.242859,122.084030 449.061096,129.962463 
z"/>
<path fill="#000000" opacity="1.000000" stroke="none" 
	d="
M416.408386,166.833969 
	C413.565735,165.401169 410.300873,164.068573 410.843231,160.931747 
	C411.336365,158.079758 414.847229,158.060669 417.371429,157.361801 
	C421.141235,156.318039 424.172119,157.879120 427.067322,159.906479 
	C428.429413,160.860291 429.777435,162.078949 429.257141,163.984390 
	C428.777191,165.742035 427.233704,166.585220 425.574371,166.948822 
	C422.654053,167.588730 419.698395,167.906281 416.408386,166.833969 
z"/>
<path fill="#000000" opacity="1.000000" stroke="none" 
	d="
M614.924927,159.907486 
	C616.410522,162.059250 615.218750,163.232391 613.933044,164.399857 
	C610.526794,167.492737 603.422729,168.393234 599.365723,166.320068 
	C596.581543,164.897278 596.237061,163.229996 598.359131,160.866013 
	C602.401367,156.363022 608.153320,155.889526 614.924927,159.907486 
z"/>
<path fill="#000000" opacity="1.000000" stroke="none" 
	d="
M577.448669,128.325485 
	C578.955261,121.561218 583.739990,119.415131 589.506714,118.565033 
	C592.099915,118.182755 593.807556,118.794907 593.200195,121.998787 
	C592.334106,126.567146 587.091309,131.599197 582.480225,131.799438 
	C580.313232,131.893555 577.543335,132.228897 577.448669,128.325485 
z"/>
</svg>